<svg xmlns="http://www.w3.org/2000/svg">
  <path d="M309.9798241 436.2890708v14.60905273c0 11.62551378-8.89794174 21.29629516-20.4759864 22.9423856l-3.75214412 13.27160424c-2.03687823 7.2016457-8.79073761 12.2427977-16.61663819 12.2427977h-37.19982872c-7.82590056 0-14.57975996-5.041152-16.6166382-12.2427977l-3.64493998-13.27160422c-11.6852488-1.74897112-20.58319054-11.31687183-20.58319054-23.04526625v-14.60905273c0-7.81892962 6.53945116-14.09464947 14.68696408-14.09464947h89.515438c8.14751291.10288065 14.68696408 6.37860049 14.68696408 14.1975301z m68.93224747-196.91356973c0 33.2304509-13.72212702 63.37448221-36.02058343 85.4938226-16.93825055 16.87242708-27.87307052 38.37448354-31.51801051 61.31686916-1.60806176 9.87654268-10.5060035 17.18106904-21.012007 17.18106904h-79.65265918c-10.3987994 0-19.40394527-7.20164572-20.9048029-17.07818837-3.75214412-22.94238563-14.7941682-44.75308405-31.73241874-61.52263048-21.86963994-21.81069842-35.48456284-51.44032648-35.8061752-84.05349346-.75042882-68.51851486 56.06775337-123.9711868 127.46569554-124.48559006 71.29073805-.51440326 129.18096142 54.83538801 129.18096142 123.14814158z m-113.85077263-74.58847339c0-7.61316831-6.43224705-13.88888814-14.47255585-13.88888814-51.02915986 0-92.6243574 39.81481268-92.6243574 88.88888415 0 7.61316832 6.43224705 13.88888815 14.47255584 13.88888815 7.93310469 0 14.47255585-6.17283918 14.47255585-13.88888815 0-33.74485417 28.62349932-61.11110787 63.6792457-61.11110787 8.0403088 0 14.47255586-6.17283917 14.47255586-13.88888814z m-14.47255585-88.9917648c7.93310468 0 14.47255585-6.17283917 14.47255585-13.88888814V13.2438259c0-7.61316831-6.43224705-13.88888814-14.47255585-13.88888814s-14.47255583 6.17283917-14.47255583 13.88888814v48.66254885c0 7.71604897 6.53945114 13.88888815 14.47255583 13.88888815z M80.2414006 239.27262044c0-7.61316833-6.43224704-13.88888816-14.47255585-13.88888816h-50.7075475c-7.9331047 0-14.47255585 6.17283917-14.47255585 13.88888816 0 7.61316831 6.43224705 13.88888813 14.47255585 13.88888813h50.7075475c8.0403088 0 14.47255585-6.17283917 14.47255585-13.88888813z m405.87478832-13.88888816H435.4086414c-7.93310468 0-14.47255585 6.17283917-14.47255585 13.88888816 0 7.61316831 6.43224705 13.88888813 14.47255585 13.88888813h50.70754752c7.93310468 0 14.47255585-6.17283917 14.47255585-13.88888813 0-7.61316833-6.43224706-13.88888816-14.47255585-13.88888816z M109.72253289 354.91047432l-35.91337932 34.46501873c-5.68181823 5.45267461-5.68181823 14.19753012 0 19.65020471 2.78730704 2.674897 6.53945116 4.01234547 10.18439115 4.01234547s7.3970841-1.33744848 10.18439115-4.01234546l35.91337931-34.46501872c5.68181822-5.4526746 5.68181822-14.19753012 0-19.65020473-5.57461411-5.4526746-14.7941682-5.4526746-20.36878229 0z m271.54802926-227.1604817c3.64493999 0 7.3970841-1.33744849 10.18439115-4.01234546l35.91337931-34.46501873c5.68181822-5.4526746 5.68181822-14.19753012 0-19.65020472-5.68181822-5.4526746-14.7941682-5.4526746-20.47598642 0l-35.9133793 34.46501873c-5.68181823 5.4526746-5.68181823 14.1975301 0 19.65020471 2.89451116 2.67489698 6.53945115 4.01234546 10.29159525 4.01234546z M109.7225329 123.6347665c2.78730705 2.67489698 6.53945114 4.01234547 10.18439114 4.01234547s7.3970841-1.3374485 10.18439114-4.01234547c5.68181823-5.4526746 5.68181823-14.1975301 0-19.65020471l-35.9133793-34.46501875c-5.68181823-5.4526746-14.79416821-5.4526746-20.47598643 0s-5.68181821 14.1975301 0 19.65020471l36.02058344 34.46501873z m281.7324204 231.27570781c-5.68181822-5.4526746-14.7941682-5.4526746-20.4759864 0-5.68181823 5.45267462-5.68181823 14.19753012 0 19.65020471l35.9133793 34.46501874c2.78730705 2.674897 6.53945116 4.01234547 10.18439115 4.01234547s7.39708409-1.33744848 10.18439116-4.01234546c5.68181821-5.45267459 5.68181821-14.1975301 0-19.6502047l-35.8061752-34.46501875z"/>
</svg>
