<svg xmlns="http://www.w3.org/2000/svg">
  <path d="M79.40819148 363.54991612c-5.33144216 9.80499032-9.5749486 24.55770704-9.5749486 33.85333663 0 2.15805954 0 4.90290265.52208181 8.71047598L3.72145 288.76272123c-2.1328952-3.80757333-3.72142462-9.2703653-3.72142462-14.19201242 0-4.92816694 1.58852941-10.91906411 3.72142462-14.73315726l31.98944884-57.31571435L.00002537 181.7969678l116.20777116-2.2028833 56.49307218 104.2469896-36.23295527-21.28475872-57.05972196 100.99360074zm51.183914-330.76581884c10.1193144-18.03136987 26.65800668-27.85591964 46.89663546-27.85591964 21.87013445 0 38.9317044 10.38443909 51.18311815 31.64393352l18.1272217 31.1093085-62.91324594 111.37803982-101.80117823-60.59518247 48.50744886-85.68017973zm7.4420534 425.18825867c-30.3794313 0-55.42742044-25.65303635-55.42742044-56.76152987 0-8.73574027 3.74291274-23.487642 9.0743549-32.7580073l17.03928598-31.1093085H235.068953v120.62966065h-97.03479413zM239.33553926 29.48588467c-7.98721504-14.17326794-18.65009937-24.023082-31.4458789-29.48587397h131.11416192c11.72933193 0 20.78219872 4.92816694 26.13592487 14.21727671l32.5123265 56.76152987 35.1696911-21.30431818-56.51853959 103.73110906-115.64191724-1.66825827 35.71087346-20.7248694-57.03664212-101.52659582zm202.0384986 308.95213994c15.97283836 0 29.31298369-4.36746264 40.49874569-13.08445844l-66.1117929 117.88481754c-5.33144216 9.2703653-14.90639076 14.73315726-26.09533618 14.73315726h-62.39116412v42.02837261l-59.692415-102.06285079 59.692415-102.08893005v42.5890769h114.0995475zm51.1401419-98.25527745c4.80936034 8.73574028 7.48582549 18.00610557 7.48582549 27.83636019 0 19.65480438-12.27369773 40.39841827-29.3129837 50.20422356-8.0079073 4.39354192-19.21595328 7.13105023-30.3794313 7.13105023h-35.21027978l-62.87265725-111.37803983 101.80436165-59.49985315 48.48516488 85.706259z"/>
</svg>
