<svg xmlns="http://www.w3.org/2000/svg">
    <path d="M131.73899668 377.80381965h236.634966c8.65536864 0 15.74983954-7.51200972 15.74983954-16.58969252V138.8642935c0-9.16231375-7.0944709-16.58969253-15.74983954-16.58969253h-236.634966c-8.65441742 0-15.74983954 7.42737795-15.74983954 16.58969253v222.34983362c0 9.0776828 7.09542212 16.58969252 15.74983954 16.58969252z"/>
    <path d="M53.45901882 97.43137115v305.21567917c0 22.7798453 17.54296875 41.3503061 39.13951332 41.3503061h314.91589508c21.5974958 0 39.14046454-18.5704608 39.14046454-41.35030693V97.43137115c0-22.86246157-17.54296875-41.43292237-39.14046454-41.43292237H92.59853214c-21.59654457-8.2e-7-39.13951332 18.57045997-39.13951332 41.43292237zm46.93638832 41.43292236c0-18.24201207 14.03475549-33.09676879 31.34358954-33.09676879h236.634966c17.30883405 0 31.34358954 14.85475672 31.34358954 33.0967688v222.3498336c0 18.23999656-14.03475549 33.0967688-31.34358954 33.0967688h-236.634966c-17.30883405 0-31.34358954-14.85677141-31.34358954-33.0967688v-222.3498336zM96.80914872 8.29275573v31.19861596h15.59375V8.29275573c0-4.62246501-3.50916449-8.25353813-7.796875-8.25353813s-7.796875 3.63107312-7.796875 8.25353813zm41.55700146 0v31.19861596h15.59375V8.29275573c0-4.62246501-3.50821326-8.25353813-7.796875-8.25353813s-7.796875 3.63107312-7.796875 8.25353813zm41.55795269 0v31.19861596h15.59375V8.29275573c0-4.62246501-3.50916448-8.25353813-7.796875-8.25353813-4.28866174 0-7.796875 3.63107312-7.796875 8.25353813zm41.55700147 0v31.19861596h15.59375V8.29275573c0-4.62246501-3.50916448-8.25353813-7.796875-8.25353813s-7.796875 3.63107312-7.796875 8.25353813zm41.55700068 0v31.19861596h15.59375V8.29275573c0-4.62246501-3.50821326-8.25353813-7.796875-8.25353813-4.28770974 0-7.796875 3.63107312-7.796875 8.25353813zm41.55795269 0v31.19861596h15.59375V8.29275573c0-4.62246501-3.50821326-8.25353813-7.796875-8.25353813s-7.796875 3.63107312-7.796875 8.25353813zm41.55700147 0v31.19861596h15.59375V8.29275573c0-4.62246501-3.50916448-8.25353813-7.796875-8.25353813s-7.796875 3.63107312-7.796875 8.25353813zm41.55700068 0v31.19861596h15.59375V8.29275573c0-4.62246501-3.50821326-8.25353813-7.796875-8.25353813-4.28770973 0-7.796875 3.63107312-7.796875 8.25353813zM112.40289872 460.50443268h-15.59375v31.28123223c0 4.53783406 3.50916448 8.25353813 7.796875 8.25353813s7.796875-3.71570407 7.796875-8.25353813v-31.28123223zm41.55700146 31.28123223v-31.28123223h-15.59375v31.28123223c0 4.53783406 3.50821327 8.25353813 7.796875 8.25353813s7.796875-3.71570407 7.796875-8.25353813zm25.96420269 0c0 4.53783406 3.50821326 8.25353813 7.796875 8.25353813 4.28771052 0 7.796875-3.71570407 7.796875-8.25353813v-31.28123223h-15.59375v31.28123223zm57.15075147 0v-31.28123223h-15.59375v31.28123223c0 4.53783406 3.50916448 8.25353813 7.796875 8.25353813s7.796875-3.71570407 7.796875-8.25353813zm41.55700068 0v-31.28123223h-15.59375v31.28123223c0 4.53783406 3.50916449 8.25353813 7.796875 8.25353813 4.28866174 0 7.796875-3.71570407 7.796875-8.25353813zm25.96420269 0c0 4.53783406 3.50821326 8.25353813 7.796875 8.25353813s7.796875-3.71570407 7.796875-8.25353813v-31.28123223h-15.59375v31.28123223zm57.15075147 0v-31.28123223h-15.59375v31.28123223c0 4.53783406 3.50916448 8.25353813 7.796875 8.25353813s7.796875-3.71570407 7.796875-8.25353813zm33.76012568 8.25353813c4.28866174 0 7.796875-3.71570407 7.796875-8.25353813v-31.28123223h-15.59375v31.28123223c0 4.53783406 3.50916527 8.25353813 7.796875 8.25353813zm96.292168-412.2658416h-27.75733189v16.50707627h27.7573319c4.28771052 0 7.796875-3.71368939 7.796875-8.25353813 0-4.53783406-3.50916448-8.25353813-7.796875-8.25353813zm0 43.99200285h-29.5504611v16.50707626h29.5504611c4.28771053 0 7.796875-3.71368938 7.796875-8.25353813s-3.50916447-8.25353813-7.796875-8.25353813zm0 43.99200284h-29.5504611v16.50707627h29.5504611c4.28771053 0 7.796875-3.71570408 7.796875-8.25353813 0-4.53984875-3.50916447-8.25353814-7.796875-8.25353814zm0 43.98998816h-29.5504611v16.50707626h29.5504611c4.28771053 0 7.796875-3.71368938 7.796875-8.25353813 0-4.53783406-3.50916447-8.25353813-7.796875-8.25353813zm0 43.99200284h-29.5504611v16.50707627h29.5504611c4.28771053 0 7.796875-3.7136894 7.796875-8.25353814s-3.50916447-8.25353813-7.796875-8.25353813zm0 43.99200285h-29.5504611v16.50707626h29.5504611c4.28771053 0 7.796875-3.71368939 7.796875-8.25353813s-3.50916447-8.25353813-7.796875-8.25353813zm0 43.98998815h-29.5504611v16.50707626h29.5504611c4.28771053 0 7.796875-3.63107312 7.796875-8.25353813 0-4.53783405-3.50916447-8.25353813-7.796875-8.25353813zm0 43.99200284h-29.5504611v6.93369752c0 3.30060888-.2341347 6.43800157-.77949725 9.57337875h30.32995836c4.28771052 0 7.796875-3.63107312 7.796875-8.25353813 0-4.53984875-3.50916448-8.25353814-7.796875-8.25353814zm-483.40625-291.43291426h27.47084977V87.77336145H8.39285287c-4.3667069 0-7.796875 3.71570407-7.796875 8.25353813 0 4.53984874 3.4301681 8.25353813 7.796875 8.25353813zm0 43.99200284h27.47084977V131.7653643H8.39285287c-4.3667069 0-7.796875 3.71368939-7.796875 8.25353813s3.4301681 8.25353813 7.796875 8.25353813zm0 43.99200285h27.47084977v-16.50707627H8.39285287c-4.3667069 0-7.796875 3.7136894-7.796875 8.25353814 0 4.53783405 3.4301681 8.25353813 7.796875 8.25353813zm0 43.98998815h27.47084977V219.7473553H8.39285287c-4.3667069 0-7.796875 3.71570407-7.796875 8.25353813 0 4.53984875 3.4301681 8.25353813 7.796875 8.25353813zm0 43.99200285h27.47084977v-16.50707627H8.39285287c-4.3667069 0-7.796875 3.71368939-7.796875 8.25353813s3.4301681 8.25353814 7.796875 8.25353814zm0 43.99200284h27.47084977v-16.50707626H8.39285287c-4.3667069 0-7.796875 3.71368938-7.796875 8.25353813s3.4301681 8.25353813 7.796875 8.25353813zm0 43.98998815h27.47084977v-16.50707626H8.39285287c-4.3667069 0-7.796875 3.71570408-7.796875 8.25353813 0 4.62246501 3.4301681 8.25353813 7.796875 8.25353813zm0 43.99200285h27.47084977v-16.50707627H8.39285287c-4.3667069 0-7.796875 3.71368939-7.796875 8.25353814 0 4.622465 3.4301681 8.25353813 7.796875 8.25353813z"/>
</svg>
