<svg xmlns="http://www.w3.org/2000/svg">
    <path d="M328.75535002 228.45614965c10.38497196-7.15829289 22.63774463-10.2068381 34.6290252-8.81762763l136.61094413-141.1592204L423.49020216-.55133902l-136.62962213 141.1592204c1.38217253 12.5414835-1.68102064 25.35309126-8.89073139 36.21594543l50.78550138 51.63232283zM90.44265724 400.37096065l-4.9496694-5.11309137-25.90639744 21.62924098-43.63182512 71.02338106 11.16944807 11.53815658 68.80978077-45.07213397 20.91936584-26.68444358-4.96835496-5.19022734 86.89009713-89.7777249-21.5917788-21.99582082z"/>
    <path d="M209.27213843 151.47073557c10.03008983-37.0456128.93390036-78.45180293-27.21385638-107.58663382-28.0543667-28.86470664-67.67041982-38.33835033-103.32673542-28.3437527l60.38599704 62.36011486-15.83895004 61.08667193-59.2092826 16.36181232-60.36731902-62.3215257c-9.63785168 36.81407772-.48562819 77.7379031 27.5127045 106.6797881 29.34314919 30.33109547 71.63015732 39.22590146 108.61261143 26.8001855l.33620413.34730262 248.39881676 256.59875236c9.82463175 10.12965975 22.71245667 15.2620207 35.58160358 15.2620207 12.88782492 0 25.73829382-5.13236095 35.60028158-15.2620207 19.6305855-20.2400249 19.6305855-53.13730085 0-73.53168247l-250.47207556-258.451033zm219.20509163 323.2615608c-10.57175203 0-19.1449573-8.894806-19.1449573-19.85413311 0-10.9979163 8.57320527-19.8541331 19.1449573-19.8541331 10.64646406 0 19.25702535 8.8562168 19.25702535 19.8541331.018678 10.95932712-8.59188328 19.8541331-19.25702535 19.8541331z"/>
</svg>
