<svg xmlns="http://www.w3.org/2000/svg">
    <path d="M204.092706 10.01507c-49.74747 0-99.50435 18.87853-137.32236 56.69584-75.63603 75.63274-75.72264 199.08407-.08661 274.71493 66.30673 66.30362 169.28485 74.47861 244.65164 24.53249l114.69669 114.6908c15.13511 15.13446 39.48242 15.13446 54.6164 0 15.1353-15.13445 15.1353-39.4798 0-54.61538l-114.61009-114.6908c49.88868-75.3541 41.66082-178.35854-24.62143-244.6471C303.598926 28.88042 253.840166 10 204.094586 10l-.00188.01507zm-.08661 51.14732c36.47181.01694 72.93608 13.98427 100.9108 41.95752 55.94942 55.9465 56.03603 145.95419.08661 201.90823-55.94943 55.9465-145.96067 55.9465-201.91198 0-55.94942-55.9465-55.94942-145.95231 0-201.90823 27.97472-27.97419 64.43899-41.97635 100.9108-41.95752h.00377zm-102.90657 186.81594"/>
</svg>
